<?xml version="1.0" standalone="no"?>
<!DOCTYPE svg PUBLIC "-//W3C//DTD SVG 20010904//EN"
 "http://www.w3.org/TR/2001/REC-SVG-20010904/DTD/svg10.dtd">
<svg version="1.0" xmlns="http://www.w3.org/2000/svg"
 width="1080.000000pt" height="1080.000000pt" viewBox="0 0 1080.000000 1080.000000"
 preserveAspectRatio="xMidYMid meet">

<g transform="translate(0.000000,1080.000000) scale(0.100000,-0.100000)"
fill="#000000" stroke="none">
<path d="M300 10770 c-25 -17 -61 -38 -80 -47 -19 -9 -54 -31 -77 -47 -23 -17
-64 -43 -92 -58 l-51 -28 0 -2750 c0 -2617 1 -2750 18 -2742 16 9 97 24 137
26 10 1 24 11 30 22 10 21 67 74 79 74 13 0 5 -36 -14 -65 -11 -16 -27 -55
-36 -85 -25 -85 -41 -116 -80 -152 -25 -24 -33 -39 -30 -54 6 -24 -29 -60 -75
-76 l-29 -10 0 -1539 0 -1539 25 0 c13 0 35 -5 49 -11 19 -9 32 -9 57 1 18 8
60 13 93 12 176 -6 244 -12 319 -30 45 -11 109 -25 142 -32 33 -7 64 -17 70
-22 5 -4 15 -8 23 -8 8 0 25 -9 39 -20 14 -11 38 -20 54 -20 30 0 79 -19 79
-30 0 -4 26 -21 57 -36 32 -16 74 -45 93 -64 45 -45 77 -66 118 -75 34 -7 95
-35 77 -35 -5 0 -4 -5 2 -11 6 -6 9 -18 6 -25 -3 -8 0 -14 6 -14 18 0 14 -106
-5 -125 -9 -9 -14 -24 -11 -37 3 -11 0 -29 -6 -39 -8 -14 -9 -22 -1 -27 39
-26 41 -132 3 -132 -11 0 -19 -7 -19 -18 0 -13 8 -17 34 -16 40 2 56 10 56 28
0 20 24 65 37 71 7 2 29 -11 48 -30 37 -38 54 -38 80 1 8 13 21 24 29 24 19 0
46 -34 46 -58 0 -12 4 -22 9 -22 16 0 18 -34 3 -53 -9 -9 -12 -20 -9 -23 3 -4
48 -8 99 -10 51 -2 106 -6 122 -8 28 -3 65 -39 66 -63 0 -19 14 -16 35 7 22
24 45 26 45 4 0 -14 2 -14 15 0 23 23 18 35 -20 42 -23 4 -35 12 -35 23 -1 21
-27 52 -63 75 -15 9 -31 25 -34 34 -8 22 -52 62 -70 62 -24 0 -14 30 14 41 31
12 46 -3 38 -39 -5 -21 -3 -23 17 -16 39 12 48 46 28 98 -7 21 -6 26 5 26 8 0
15 -9 15 -19 0 -11 5 -23 10 -26 7 -4 7 -12 0 -25 -12 -23 -13 -30 -1 -30 5 0
11 10 13 22 2 13 9 22 16 20 14 -2 16 34 2 43 -18 11 -10 25 14 25 13 0 27 -7
30 -15 6 -17 31 -9 60 21 15 14 19 13 46 -16 27 -28 34 -31 66 -25 20 3 47 11
60 17 21 10 23 16 18 52 -7 42 -28 76 -48 76 -6 1 -24 21 -41 46 -69 104 -83
131 -74 145 4 8 3 19 -3 26 -6 7 -6 13 -1 13 13 0 40 -34 36 -46 -2 -5 18 -27
43 -48 42 -35 46 -36 39 -15 -4 13 -12 26 -16 27 -5 2 -9 10 -9 18 0 18 35 18
63 -1 13 -8 38 -17 57 -19 19 -3 42 -7 51 -11 22 -8 31 18 19 51 -24 63 -3
102 45 84 33 -12 43 -6 25 15 -10 13 -9 15 8 15 14 0 34 -16 54 -44 31 -40 37
-44 88 -49 46 -4 57 -2 69 14 11 15 17 17 34 7 18 -9 25 -6 51 24 17 19 43 42
58 51 16 10 28 25 28 35 0 23 46 72 68 72 19 0 83 30 108 51 12 10 15 24 10
59 -5 39 -3 50 14 65 14 13 20 29 19 50 -5 64 47 153 100 170 9 3 22 17 29 32
7 16 22 43 35 61 21 30 24 32 69 26 59 -7 88 7 88 45 0 58 12 92 37 102 13 5
26 15 29 23 3 8 21 31 39 51 24 25 42 35 64 35 16 0 32 4 35 9 3 4 19 11 34
14 16 3 46 23 66 44 l36 39 112 3 c62 1 120 7 130 12 9 5 26 9 38 9 12 0 40
10 61 22 39 22 49 41 28 53 -6 4 -8 13 -5 20 3 8 -2 19 -10 25 -8 7 -14 19
-14 26 0 10 -16 14 -63 14 -40 0 -70 5 -85 16 -12 8 -22 12 -22 7 0 -4 -4 -2
-8 4 -4 7 -25 14 -45 15 -20 2 -37 8 -37 15 0 6 -9 15 -20 18 -28 9 -25 22 8
30 31 7 72 32 72 43 0 4 -9 13 -20 20 -17 10 -26 9 -53 -5 -17 -10 -64 -20
-104 -23 -80 -6 -90 4 -14 14 59 8 78 26 26 24 -59 -2 -50 10 24 32 39 11 71
25 71 30 0 16 -63 27 -98 18 -18 -5 -41 -7 -50 -5 -12 3 -11 5 6 6 12 0 22 6
22 11 0 6 9 10 19 10 20 0 37 17 28 26 -3 3 -15 1 -26 -6 -12 -6 -43 -10 -69
-8 -47 3 -47 3 28 17 41 8 79 18 84 22 5 4 6 20 2 34 l-7 27 -87 -7 c-48 -4
-97 -13 -109 -21 -25 -16 -63 -19 -63 -5 0 13 88 44 138 48 25 2 53 8 63 14
22 11 15 35 -13 42 -20 6 -20 7 5 37 33 39 26 56 -24 64 -25 4 -39 12 -39 21
0 8 -7 15 -16 15 -8 0 -13 4 -10 9 3 5 0 8 -7 7 -16 -1 -87 26 -87 34 0 4 31
21 70 39 68 32 90 57 73 83 -4 7 -8 16 -9 21 -1 4 -2 10 -3 14 0 4 -5 3 -11
-3 -11 -11 -80 -6 -80 6 0 4 10 10 22 14 18 4 20 8 10 18 -18 18 -15 27 13 38
30 12 32 28 4 38 -19 7 -18 10 15 27 38 21 46 35 21 35 -9 0 -20 12 -25 26 -8
19 -15 24 -28 19 -9 -4 -48 -9 -87 -11 -88 -5 -154 -22 -181 -45 -11 -11 -32
-19 -46 -19 -14 0 -39 -5 -56 -11 -21 -7 -37 -7 -49 0 -16 9 -15 11 10 20 16
6 39 11 51 11 13 0 40 13 60 29 20 16 51 33 69 37 18 3 52 17 77 29 58 30 95
41 86 26 -4 -7 1 -11 13 -11 25 0 38 19 21 30 -9 6 -3 13 20 25 31 16 33 18
16 31 -10 7 -16 20 -13 28 10 26 -25 27 -63 1 -20 -14 -41 -25 -46 -25 -5 0
-27 -9 -49 -20 -22 -11 -52 -20 -67 -20 -15 0 -37 -9 -48 -20 -11 -11 -31 -20
-45 -20 -14 0 -36 -6 -48 -14 -31 -20 -116 -48 -130 -43 -7 3 -1 9 13 15 22 9
23 11 7 17 -11 5 -40 -4 -80 -24 -34 -17 -76 -31 -92 -32 -27 -1 -28 -2 -7 -7
43 -12 28 -27 -33 -32 -61 -5 -89 -15 -81 -29 3 -4 -8 -5 -24 -3 -33 5 -146
-43 -155 -65 -4 -12 -15 -14 -47 -10 -35 5 -44 2 -59 -17 -13 -16 -43 -28
-121 -45 -56 -12 -122 -27 -145 -32 -23 -5 -57 -9 -77 -9 -39 0 -66 -8 -66
-20 0 -4 29 -5 65 -2 42 3 65 1 65 -6 0 -12 -73 -28 -107 -24 -15 2 -23 -3
-23 -13 0 -8 -7 -15 -16 -15 -10 0 -14 5 -10 15 3 9 -1 18 -9 21 -8 4 -13 10
-10 14 3 4 -2 10 -10 14 -9 3 -15 19 -15 40 0 19 -4 38 -10 41 -5 3 -10 17
-10 30 0 12 -7 26 -16 29 -9 4 -13 13 -10 24 6 16 -23 114 -37 128 -8 8 3 76
15 91 6 8 3 15 -11 23 -26 13 -28 65 -5 92 14 15 15 20 3 34 -7 9 -14 21 -16
28 -1 6 -7 31 -13 54 -8 35 -8 50 5 74 19 38 19 38 -2 39 -14 0 -15 2 -3 6 8
3 18 10 21 16 4 5 27 11 51 13 24 3 62 13 83 24 22 11 46 20 55 20 9 0 73 23
143 50 70 28 133 50 140 50 13 0 103 34 167 62 19 9 53 22 75 28 22 7 45 16
50 20 6 4 28 13 50 20 22 7 58 23 81 36 22 13 48 24 57 24 18 0 126 39 192 70
22 10 72 30 110 45 39 15 86 33 105 40 19 8 46 17 60 21 55 15 70 49 18 41
-40 -6 -145 -42 -213 -73 -27 -12 -81 -32 -120 -44 -38 -12 -81 -27 -95 -34
-14 -8 -43 -19 -65 -26 -22 -7 -53 -18 -70 -25 -53 -21 -99 -37 -125 -42 -14
-3 -32 -11 -40 -18 -25 -20 -144 -55 -187 -55 -29 0 -44 -6 -54 -20 -8 -11
-29 -23 -47 -26 -28 -6 -31 -4 -26 11 6 14 2 16 -22 13 -20 -2 -33 -12 -43
-32 -10 -21 -15 -25 -21 -15 -5 7 -27 14 -49 15 -40 2 -43 -1 -40 -33 0 -13
-64 -22 -82 -13 -10 6 -21 5 -29 -3 -10 -9 -14 -9 -17 1 -3 6 -19 12 -36 13
l-32 1 29 8 c15 5 36 15 45 23 9 8 39 20 66 26 28 7 77 26 110 41 75 36 189
80 207 80 7 0 27 8 43 18 28 17 87 39 165 60 19 6 67 22 105 37 39 15 108 40
155 56 47 17 94 36 105 43 11 8 41 17 65 21 25 4 81 22 125 40 44 18 109 43
144 56 63 24 91 49 54 49 -26 0 -149 -39 -208 -67 -49 -23 -71 -30 -230 -72
-44 -12 -93 -28 -110 -36 -16 -7 -61 -21 -98 -31 -56 -15 -70 -16 -76 -5 -12
18 -46 9 -45 -12 2 -15 -4 -17 -40 -12 -50 8 -98 -8 -94 -31 3 -19 -49 -42
-98 -43 -17 -1 -37 -7 -43 -15 -12 -14 -61 -28 -61 -17 0 3 4 13 9 21 16 25 3
28 -65 15 -74 -14 -126 -8 -103 12 8 6 48 21 89 33 41 13 91 31 111 41 19 10
64 27 100 39 35 11 78 27 94 35 17 8 66 21 110 30 79 17 145 35 217 61 20 7
48 15 62 18 72 13 432 142 442 158 15 24 -43 14 -208 -37 -101 -32 -215 -65
-254 -75 -39 -10 -81 -23 -94 -30 -12 -7 -66 -21 -119 -31 -53 -11 -116 -26
-141 -34 -78 -24 -164 -38 -168 -27 -1 5 -26 8 -57 6 -33 -2 -55 0 -55 6 0 17
-36 11 -63 -10 -28 -23 -63 -25 -122 -9 l-39 11 24 20 c21 17 34 19 96 13 59
-5 72 -4 77 9 3 8 1 17 -6 19 -16 6 34 25 113 44 36 8 92 22 125 30 67 17 118
29 185 42 25 5 65 16 90 24 25 8 68 19 95 25 147 29 433 114 495 148 75 39
-23 25 -160 -23 -25 -9 -65 -19 -90 -23 -25 -5 -81 -17 -125 -28 -144 -37
-384 -82 -433 -82 -26 0 -52 -4 -58 -9 -11 -11 -136 -31 -148 -23 -5 3 3 11
18 19 35 19 29 25 -12 14 -19 -6 -34 -6 -37 0 -4 5 -16 9 -28 9 -21 1 -21 1
-3 12 17 9 15 12 -20 24 -21 8 -48 14 -58 14 -19 0 -19 0 -1 -13 16 -13 14
-15 -28 -25 -57 -15 -131 -16 -122 -2 3 6 -1 13 -9 16 -23 9 -19 19 7 22 13 1
71 11 128 22 57 11 118 20 136 20 17 0 34 4 37 8 3 5 51 12 106 16 56 3 121
11 146 16 24 6 72 14 106 20 35 5 95 14 133 20 91 14 281 59 323 76 18 8 52
14 75 14 47 1 97 23 78 35 -7 4 -45 0 -84 -9 -280 -61 -530 -95 -772 -106
-110 -5 -220 -12 -245 -15 -38 -5 -41 -4 -20 5 14 6 53 14 88 17 34 3 62 9 62
13 0 4 11 5 24 3 13 -3 26 0 30 5 9 15 -34 26 -47 13 -6 -6 -43 -11 -81 -11
-68 0 -214 -14 -283 -26 -21 -4 -33 -2 -33 5 0 6 9 11 20 11 11 0 20 5 20 10
0 12 -30 13 -49 1 -7 -5 -10 -14 -7 -20 5 -7 -4 -11 -25 -11 -31 0 -32 1 -13
15 16 12 16 14 3 15 -9 0 -23 -8 -30 -19 -17 -23 -84 -38 -76 -17 7 17 -12 36
-36 36 -13 0 -17 5 -14 15 4 8 2 17 -2 19 -5 3 -6 17 -3 32 4 22 6 24 14 10
10 -18 39 -21 54 -6 5 5 46 12 89 16 44 3 98 9 120 14 35 8 256 20 680 35 72
3 144 7 160 10 17 3 48 8 70 11 22 2 90 12 150 20 61 9 133 19 162 23 29 4 56
11 60 15 4 5 -14 6 -42 2 -222 -28 -367 -38 -755 -49 -245 -6 -528 -12 -629
-12 l-183 0 -4 44 c-6 59 -18 71 -71 71 -24 0 -52 4 -62 10 -11 5 -159 9 -357
9 -186 0 -363 0 -391 0 -29 0 -53 -3 -53 -7 0 -10 -94 -48 -136 -55 -26 -5
-33 -1 -47 23 -10 16 -16 32 -15 37 6 16 -42 52 -88 68 -26 9 -51 18 -54 20
-17 10 6 59 46 103 24 26 44 53 44 60 0 8 9 26 20 42 11 15 16 31 12 35 -4 5
-2 5 4 2 6 -4 19 2 29 13 10 11 24 20 31 20 15 0 23 25 20 59 -4 35 27 60 82
68 26 3 51 12 55 20 6 10 17 13 34 9 39 -10 91 4 124 35 16 15 39 31 50 34 23
8 25 28 3 50 -15 15 -15 17 2 30 11 8 23 15 27 15 4 0 19 12 32 26 16 17 38
28 62 31 21 2 63 11 93 19 30 9 70 13 88 10 27 -4 39 0 57 18 13 13 26 22 28
19 3 -2 20 0 38 5 27 6 34 14 34 33 1 22 4 24 50 22 79 -4 114 5 127 33 11 24
45 33 64 15 5 -5 27 -11 49 -13 40 -3 40 -3 41 34 1 40 18 68 40 68 21 0 25
17 8 34 -20 21 -8 39 22 32 16 -4 30 1 48 19 14 14 30 25 36 25 5 0 10 18 10
39 0 41 16 63 30 41 12 -19 38 -5 42 22 2 19 8 23 35 20 17 -2 50 2 73 8 38
10 42 14 38 39 -4 24 -1 27 19 23 13 -2 26 -8 29 -13 10 -17 46 -9 64 13 18
22 19 22 54 5 47 -22 62 -22 79 4 16 23 12 144 -6 167 -14 18 -6 23 57 29 l57
6 -18 -32 c-16 -27 -16 -33 -3 -41 8 -5 26 -6 41 -3 27 5 48 -10 29 -22 -17
-11 -11 -24 19 -39 25 -13 31 -13 50 0 11 8 26 12 31 9 14 -9 1 -28 -15 -21
-7 2 -23 -3 -35 -11 -22 -15 -22 -17 -5 -30 25 -17 63 -17 82 2 13 14 18 13
48 -5 18 -11 41 -20 52 -20 21 0 90 66 80 76 -4 4 -29 9 -56 12 -71 6 -82 51
-13 52 36 0 21 24 -17 28 -41 4 -36 23 10 38 90 28 88 33 -11 34 l-95 2 50 15
c93 27 120 31 233 38 62 3 123 10 135 14 12 5 54 11 92 15 117 12 134 16 132
35 -1 16 -4 16 -27 4 -14 -7 -47 -13 -73 -13 -45 0 -48 1 -41 22 l6 21 -178
-6 c-158 -5 -225 0 -198 16 15 8 115 18 277 26 155 8 156 9 180 37 27 31 26
44 -3 44 -10 0 -23 8 -29 18 -9 15 -31 17 -235 17 -126 0 -221 4 -216 9 13 13
271 37 380 35 124 -1 118 -3 118 27 0 24 8 47 38 106 17 32 18 50 2 66 -7 7
-13 26 -13 43 -1 30 -4 33 -65 51 -36 11 -72 24 -81 28 -9 5 -35 14 -59 20
-27 7 -40 16 -37 24 3 8 1 18 -5 24 -6 6 -7 15 -4 21 9 14 46 -4 46 -23 0 -20
77 -44 149 -46 36 0 73 -6 83 -11 25 -14 24 15 -1 33 -11 8 -23 26 -27 42 -3
15 -30 59 -60 98 -29 38 -61 92 -71 120 -14 40 -30 60 -69 90 -28 21 -54 38
-58 38 -4 0 -18 10 -31 23 -13 12 -31 28 -40 35 -8 7 -15 20 -15 29 0 13 3 14
12 5 7 -7 20 -12 30 -12 22 0 199 -86 293 -143 83 -50 185 -107 192 -107 4 0
19 -10 33 -21 l25 -20 -25 7 c-14 4 -41 15 -60 25 -32 17 -70 25 -70 15 0 -19
25 -60 59 -100 33 -38 41 -55 41 -87 0 -30 7 -46 27 -67 15 -15 27 -30 26 -34
-4 -12 22 -25 94 -47 70 -21 152 -28 154 -13 0 4 2 26 4 48 2 23 11 53 20 67
16 26 16 26 -22 50 -21 13 -44 32 -52 41 -12 14 -10 16 11 16 14 0 39 -5 57
-11 25 -9 38 -8 65 5 19 9 37 16 41 16 12 0 44 44 45 62 0 9 11 29 24 45 13
15 26 38 30 50 5 14 18 24 39 28 102 21 217 75 217 103 0 27 97 31 295 13 86
-8 145 -20 210 -43 120 -41 304 -59 430 -41 56 7 61 10 78 44 24 50 44 125 68
254 17 98 19 134 13 330 -12 378 -11 400 14 434 14 20 22 45 22 71 0 24 7 47
18 58 59 62 112 168 110 220 -1 46 7 63 27 55 9 -3 21 -1 28 5 6 5 66 12 131
16 144 8 174 21 201 93 10 27 29 58 42 70 28 27 29 33 3 61 -24 26 -30 27 -56
7 -10 -8 -32 -15 -48 -15 -16 0 -37 -7 -46 -15 -10 -9 -47 -16 -100 -19 -47
-3 -102 -12 -124 -20 -32 -11 -46 -11 -83 0 -44 13 -77 37 -66 48 3 3 0 12 -7
20 -6 9 -16 31 -20 51 -6 29 -5 35 8 35 9 0 26 10 38 21 16 15 29 19 41 14 10
-5 50 -9 90 -10 62 -2 76 -6 104 -29 35 -30 26 -29 187 -10 35 4 52 2 52 -5 0
-14 25 -14 49 1 15 9 24 7 47 -11 24 -19 29 -20 36 -6 5 8 16 15 24 15 8 0 23
5 34 12 16 11 23 9 47 -13 48 -44 75 -59 99 -53 16 4 30 -2 48 -19 17 -17 32
-24 46 -20 14 4 30 -3 49 -21 l28 -27 7 25 c8 33 23 33 38 0 7 -15 23 -27 40
-31 31 -6 66 -57 48 -68 -6 -4 -17 -2 -24 4 -18 15 -49 -9 -40 -32 4 -11 17
-17 38 -17 24 0 38 -8 59 -35 15 -19 36 -35 46 -35 20 0 45 -25 38 -37 -3 -4
-8 -36 -11 -71 -3 -34 -18 -91 -33 -125 -18 -42 -26 -81 -27 -122 -1 -55 3
-67 52 -147 45 -74 51 -91 42 -108 -14 -26 -49 -186 -50 -223 0 -21 6 -30 20
-34 21 -6 27 -37 10 -48 -5 -3 -17 -31 -26 -61 -19 -67 -11 -128 22 -161 13
-13 24 -33 24 -44 0 -11 5 -29 11 -40 15 -29 -21 -80 -146 -204 -109 -110
-152 -161 -185 -221 -12 -21 -26 -44 -31 -50 -24 -30 53 -107 121 -121 17 -3
37 -15 43 -25 13 -21 126 -107 173 -131 71 -36 225 -79 326 -91 95 -11 110
-16 132 -39 14 -15 30 -27 36 -27 6 0 18 -15 27 -34 9 -19 29 -40 44 -46 15
-7 35 -22 43 -35 9 -13 25 -27 37 -30 14 -5 19 -13 16 -25 -6 -24 17 -56 54
-75 22 -12 29 -23 29 -44 0 -30 14 -41 55 -41 27 0 38 -13 40 -48 0 -14 18
-39 43 -62 46 -42 53 -69 23 -87 -17 -11 -17 -16 -7 -64 11 -47 17 -56 58 -81
26 -16 66 -33 90 -38 l43 -9 -40 4 c-22 2 -62 7 -90 11 -44 6 -49 5 -37 -8 10
-12 10 -18 -2 -27 -12 -10 -12 -17 1 -50 19 -48 47 -70 138 -106 39 -15 86
-36 105 -46 19 -10 60 -27 90 -39 53 -21 121 -50 167 -73 44 -20 13 -19 -36 2
-27 11 -54 21 -60 21 -8 0 -81 32 -216 96 -16 7 -55 20 -85 28 -30 8 -64 18
-74 22 -17 6 -18 4 -12 -17 31 -103 34 -147 9 -155 -95 -31 -97 -49 -8 -105
36 -23 65 -46 65 -52 0 -5 -15 0 -32 12 -93 58 -170 89 -153 61 8 -13 67 -53
155 -105 69 -40 144 -103 152 -126 3 -10 52 -8 219 10 238 25 325 40 447 78
71 22 82 28 77 44 -8 23 9 25 59 4 32 -14 42 -13 108 4 45 12 154 26 282 36
114 8 211 17 215 19 14 9 217 -26 230 -40 22 -20 9 -26 -76 -34 -79 -8 -154
-30 -183 -54 -8 -7 -30 -19 -48 -26 -18 -7 -36 -19 -41 -28 -6 -11 -31 -15
-100 -18 -98 -3 -161 -18 -161 -38 0 -19 -73 -45 -94 -34 -12 7 -32 2 -71 -16
-29 -14 -57 -26 -60 -26 -4 0 -24 -13 -44 -29 -37 -29 -61 -81 -61 -130 0 -15
-8 -23 -27 -27 -16 -3 -36 -12 -47 -19 -18 -13 -18 -16 -2 -49 9 -19 16 -44
16 -57 0 -21 -1 -22 -20 -4 -47 42 -184 34 -186 -12 -2 -45 -11 -52 -61 -52
-26 0 -65 7 -86 16 -28 12 -43 14 -60 6 -29 -13 -77 -5 -77 12 0 7 -9 32 -19
56 -13 28 -16 46 -10 50 6 3 1 9 -12 12 -25 7 -62 -9 -54 -23 4 -6 -4 -6 -20
0 -15 6 -48 10 -74 10 -44 0 -50 3 -80 40 -47 59 -85 52 -86 -15 0 -44 -38
-48 -56 -6 -17 38 -29 35 -44 -10 -9 -26 -18 -35 -38 -37 -33 -4 -48 -29 -50
-83 -1 -35 3 -45 31 -67 18 -15 32 -36 32 -48 0 -12 11 -26 28 -35 15 -8 33
-20 40 -27 15 -13 10 -17 -33 -25 -11 -2 -19 -9 -17 -15 1 -7 -2 -12 -8 -12
-5 0 -7 -7 -4 -15 4 -8 1 -15 -5 -15 -6 0 -11 7 -11 15 0 11 -11 15 -41 15
-22 0 -38 -4 -34 -9 7 -13 -12 -24 -65 -37 l-45 -11 35 -16 c29 -13 31 -16 13
-17 -13 0 -23 -4 -23 -10 0 -5 -6 -7 -14 -4 -8 3 -17 1 -20 -5 -4 -5 -27 -13
-51 -17 -25 -3 -45 -10 -45 -14 0 -5 -28 -10 -62 -13 -35 -2 -83 -11 -108 -19
-96 -33 -189 -50 -297 -55 -103 -5 -112 -8 -121 -28 -10 -21 -20 -24 -114 -30
-57 -4 -130 -8 -163 -10 -109 -4 -109 -6 -8 -42 46 -16 98 -25 161 -28 51 -3
98 -7 103 -11 17 -10 362 -14 439 -4 45 6 128 6 207 1 106 -6 138 -12 168 -30
20 -11 42 -21 48 -21 28 0 72 -77 80 -138 4 -33 1 -47 -12 -60 -10 -9 -21 -25
-24 -34 -5 -15 -54 -41 -145 -78 -18 -7 -38 -22 -43 -33 -10 -17 -18 -19 -71
-13 -54 5 -62 4 -86 -19 -15 -14 -39 -25 -54 -25 -23 0 -28 -4 -28 -25 0 -27
-30 -45 -75 -45 -13 0 -37 -11 -53 -25 -16 -13 -51 -32 -78 -40 -44 -15 -82
-33 -236 -111 -56 -28 -65 -41 -45 -61 14 -14 18 -13 45 6 17 11 33 21 36 21
4 0 16 9 28 20 12 11 30 20 40 20 21 0 306 79 329 91 9 4 41 13 70 18 30 5 80
16 111 25 112 31 333 47 499 37 54 -3 72 -9 96 -30 16 -14 32 -33 35 -42 7
-19 -31 -70 -38 -52 -7 15 -7 15 -125 -98 -49 -48 -89 -92 -89 -98 0 -13 -63
-97 -88 -118 -8 -7 -15 -22 -16 -35 -1 -13 -8 -24 -18 -26 -21 -4 -25 24 -5
31 8 3 5 12 -10 28 -21 21 -24 22 -50 8 -46 -23 -57 -37 -43 -54 10 -13 6 -18
-23 -30 -43 -18 -144 -20 -149 -4 -5 14 -128 -46 -128 -62 0 -5 -5 -7 -11 -3
-7 4 -10 1 -7 -7 6 -17 -32 -52 -100 -90 -29 -17 -56 -38 -59 -46 -5 -14 -46
-36 -69 -38 -6 0 -26 -18 -45 -40 -19 -22 -38 -43 -43 -46 -4 -4 -3 -10 3 -13
18 -11 13 -26 -9 -26 -11 0 -29 -9 -40 -20 -10 -10 -39 -31 -62 -46 -107 -66
-119 -76 -116 -103 2 -20 12 -29 44 -40 40 -14 42 -14 80 16 36 29 48 32 169
42 184 17 249 27 284 42 61 27 32 40 -64 27 -96 -12 -226 7 -211 31 3 4 34 18
68 31 35 12 78 34 97 48 42 31 95 51 140 52 40 0 137 34 241 84 41 20 80 36
86 36 7 0 14 3 16 8 12 27 170 102 214 102 24 0 165 72 171 87 3 8 23 33 44
56 49 52 63 43 68 -40 1 -7 10 -13 21 -13 22 0 27 16 8 23 -7 3 5 3 27 0 22
-4 42 -10 43 -15 2 -4 19 -8 38 -8 24 0 34 -4 34 -16 0 -13 8 -15 50 -9 34 5
50 3 50 -4 0 -6 15 -11 33 -11 20 0 44 -9 57 -20 13 -11 34 -20 48 -20 14 0
31 -8 38 -17 13 -17 13 -17 14 2 0 15 18 1 70 -55 38 -41 70 -78 70 -83 0 -4
11 -12 24 -17 14 -5 59 -35 102 -67 54 -41 83 -71 100 -105 13 -26 28 -49 34
-53 5 -3 10 -11 10 -16 0 -6 -3 -8 -8 -5 -4 2 -16 -2 -26 -10 -18 -13 -18 -15
-3 -32 24 -26 47 -24 47 5 0 13 4 23 10 23 5 0 9 -15 8 -33 -1 -26 8 -42 41
-77 37 -39 41 -49 37 -80 -8 -59 -15 -81 -28 -98 -10 -12 -10 -16 0 -19 17 -6
15 -60 -3 -70 -37 -21 13 -149 74 -188 25 -15 43 -35 47 -53 4 -15 24 -45 45
-67 21 -22 52 -56 68 -76 43 -51 40 -78 -4 -45 -17 12 -23 11 -55 -12 -49 -36
-71 -65 -57 -74 19 -12 -63 -21 -127 -13 -135 15 -201 22 -205 19 -1 -1 7 -13
19 -26 l21 -23 -36 -3 c-20 -2 -43 2 -51 8 -11 10 -25 6 -66 -17 -29 -17 -73
-33 -98 -36 -24 -3 -46 -11 -48 -16 -2 -6 -9 -11 -16 -11 -25 0 -50 -40 -47
-75 2 -27 -3 -37 -22 -50 -14 -9 -28 -28 -33 -43 -4 -15 -9 -34 -12 -42 -16
-56 -14 -92 8 -115 20 -22 22 -30 15 -91 -6 -58 -4 -74 16 -115 20 -44 21 -53
10 -87 -11 -32 -11 -46 2 -83 13 -39 13 -47 0 -73 -8 -16 -12 -40 -9 -55 24
-116 27 -147 21 -186 -3 -25 -10 -47 -15 -50 -14 -9 6 -52 55 -118 25 -32 45
-67 45 -77 0 -42 81 -33 135 16 21 19 53 36 71 40 24 4 39 16 53 40 23 38 41
44 41 15 0 -31 21 -37 42 -12 10 13 16 27 13 31 -3 5 -1 11 5 15 6 4 10 -5 10
-20 0 -31 16 -65 32 -65 5 0 26 13 44 30 42 37 83 49 98 29 7 -10 35 -15 85
-16 60 -2 79 -6 95 -23 17 -17 19 -23 8 -40 -16 -26 -15 -40 3 -40 21 0 20 -3
-18 -43 -17 -19 -44 -38 -59 -42 -29 -7 -44 -30 -27 -41 6 -3 16 -1 22 5 17
17 41 13 60 -9 15 -18 28 -20 104 -18 77 2 91 5 110 25 24 25 48 22 56 -8 6
-24 37 -25 37 -1 0 9 5 24 10 32 9 13 12 12 25 -4 8 -11 15 -32 15 -47 0 -35
33 -48 59 -25 22 20 29 20 75 1 39 -16 39 -21 2 -69 -15 -18 -17 -18 -73 10
-32 16 -61 30 -65 32 -5 2 -8 -4 -8 -12 0 -9 -11 -21 -25 -26 -33 -13 -34 -47
-1 -56 13 -3 33 -1 44 5 12 6 28 11 36 11 23 0 20 -38 -4 -45 -11 -3 -20 -11
-20 -17 0 -13 80 -2 95 13 14 14 35 11 35 -6 0 -9 11 -20 25 -25 14 -5 25 -14
25 -19 0 -14 35 -23 100 -27 30 -1 59 -3 64 -3 4 -1 6 -13 3 -28 -11 -59 37
-122 100 -132 39 -7 58 -31 24 -31 -12 0 -21 -6 -21 -13 0 -20 28 -41 75 -56
22 -7 47 -19 55 -26 38 -32 101 -56 133 -50 34 7 75 -14 64 -32 -4 -6 -25 -13
-48 -16 -70 -9 -81 -47 -13 -47 19 0 34 -4 34 -10 0 -5 -9 -10 -20 -10 -11 0
-20 -6 -20 -13 0 -7 9 -18 20 -25 11 -7 20 -18 20 -25 1 -22 60 -79 76 -73 9
3 25 1 36 -5 15 -8 18 -17 13 -36 -8 -34 2 -60 25 -66 11 -3 20 -14 20 -25 0
-10 8 -26 18 -35 16 -15 47 -17 220 -17 l202 0 0 4906 0 4906 -51 46 c-28 26
-60 51 -70 56 -11 5 -19 17 -19 26 0 18 -19 30 -49 30 -16 0 -55 32 -93 76 -9
10 -28 27 -43 38 -36 25 -18 47 19 23 14 -9 32 -14 41 -11 20 8 98 -44 198
-132 15 -13 37 -24 48 -24 18 0 20 5 17 47 -3 51 1 47 -188 178 -36 25 -83 59
-105 75 -58 44 -217 150 -225 150 -4 0 -17 11 -30 25 -13 14 -28 25 -34 25 -6
0 -48 24 -93 53 -130 83 -332 200 -475 277 l-57 30 -4623 0 -4623 0 -45 -30z
m9360 -141 c0 -6 7 -9 15 -6 8 4 17 2 20 -3 3 -5 27 -16 53 -24 26 -9 59 -27
74 -41 15 -13 43 -34 62 -45 30 -16 36 -17 36 -4 0 13 4 12 24 -3 13 -10 23
-20 21 -22 -2 -2 8 -14 22 -27 14 -13 24 -24 22 -25 -52 -12 -69 -8 -125 33
-32 24 -70 49 -84 55 -67 33 -111 63 -135 91 -15 18 -22 32 -16 32 6 0 11 -5
11 -11z m415 -211 c14 -6 25 -15 25 -20 0 -16 53 -58 74 -58 24 -1 66 -32 66
-50 0 -7 12 -24 26 -37 14 -13 23 -27 19 -31 -4 -4 -14 3 -22 16 -9 12 -26 22
-38 22 -13 0 -25 7 -29 15 -3 8 -12 15 -20 15 -8 0 -27 12 -43 28 -16 15 -38
33 -50 41 -22 15 -22 36 0 25 7 -3 -1 6 -18 20 -33 28 -30 32 10 14z m-51 -24
c5 -14 4 -15 -9 -4 -17 14 -19 20 -6 20 5 0 12 -7 15 -16z m336 -154 c0 -5 16
-18 35 -30 19 -12 35 -27 35 -33 0 -6 7 -19 16 -29 16 -16 15 -18 0 -24 -19
-7 -85 24 -93 44 -3 6 -14 12 -24 12 -10 0 -19 7 -19 15 0 9 10 15 26 15 23 0
24 1 10 16 -20 20 -21 35 -1 28 8 -4 15 -10 15 -14z m-5070 -420 c14 -25 9
-82 -6 -87 -13 -4 -44 56 -44 86 0 28 35 28 50 1z m-660 -1160 c0 -5 -7 -10
-15 -10 -8 0 -15 5 -15 10 0 6 7 10 15 10 8 0 15 -4 15 -10z m20 -54 c0 -3 -4
-8 -10 -11 -5 -3 -10 -1 -10 4 0 6 5 11 10 11 6 0 10 -2 10 -4z m-1943 -182
c-3 -3 -12 -4 -19 -1 -8 3 -5 6 6 6 11 1 17 -2 13 -5z m-161 -58 c32 -33 6
-76 -45 -76 -23 0 -27 10 -9 28 8 8 8 15 -2 27 -12 14 -11 18 1 26 20 13 38
11 55 -5z m2435 -99 c-1 -12 -15 -9 -19 4 -3 6 1 10 8 8 6 -3 11 -8 11 -12z
m-2564 -112 c22 -16 63 -86 63 -110 0 -8 -7 -15 -15 -15 -8 0 -15 7 -15 15 0
9 -7 18 -15 21 -8 4 -15 13 -15 21 0 9 -9 31 -21 49 -22 36 -16 43 18 19z
m571 -109 c3 -20 0 -27 -10 -24 -7 3 -14 17 -16 32 -3 20 0 27 10 24 7 -3 14
-17 16 -32z m-418 -100 c0 -26 -15 -43 -24 -28 -7 12 4 52 15 52 5 0 9 -11 9
-24z m930 -26 c0 -5 -9 -6 -20 -3 -11 3 -20 9 -20 13 0 5 9 6 20 3 11 -3 20
-9 20 -13z m3340 -260 c0 -5 -7 -10 -15 -10 -8 0 -15 5 -15 10 0 6 7 10 15 10
8 0 15 -4 15 -10z m-3690 -230 c0 -5 -4 -10 -10 -10 -5 0 -10 5 -10 10 0 6 5
10 10 10 6 0 10 -4 10 -10z m-530 -230 c0 -5 -21 -9 -47 -8 l-48 1 45 7 c25 4
46 8 48 8 1 1 2 -2 2 -8z m-455 -340 c0 -8 -16 -15 -44 -17 -32 -3 -42 -1 -39
9 4 12 52 28 73 23 6 -1 10 -8 10 -15z m5655 -215 l25 -15 -30 6 c-33 7 -58
24 -34 24 7 -1 25 -7 39 -15z m-174 -476 c4 -8 1 -8 -14 0 -12 6 -24 16 -28
22 -4 8 -1 8 14 0 12 -6 24 -16 28 -22z m1984 16 c0 -16 -27 -32 -37 -22 -3 4
-3 13 0 22 8 20 37 20 37 0z m-1946 -678 c16 -12 16 -14 2 -26 -21 -17 -46 -7
-46 19 0 23 18 26 44 7z m-7258 -73 c-3 -9 -6 -18 -6 -20 0 -2 -7 -4 -15 -4
-18 0 -20 26 -2 33 23 10 29 7 23 -9z m1231 -70 c15 -14 14 -16 -7 -12 -13 1
-25 9 -28 16 -5 17 16 15 35 -4z m208 -324 c-3 -5 -15 -10 -26 -10 -11 0 -17
5 -14 10 3 6 15 10 26 10 11 0 17 -4 14 -10z m-85 -10 c0 -5 -4 -10 -10 -10
-5 0 -10 5 -10 10 0 6 5 10 10 10 6 0 10 -4 10 -10z m150 -5 c0 -2 -9 -9 -20
-15 -12 -6 -20 -7 -20 -1 0 5 8 12 18 14 9 3 18 5 20 6 1 0 2 -1 2 -4z m-83
-31 c-3 -3 -12 -4 -19 -1 -8 3 -5 6 6 6 11 1 17 -2 13 -5z m-127 -14 c0 -5 -5
-10 -11 -10 -5 0 -7 5 -4 10 3 6 8 10 11 10 2 0 4 -4 4 -10z m55 -230 c3 -5 2
-10 -4 -10 -5 0 -13 5 -16 10 -3 6 -2 10 4 10 5 0 13 -4 16 -10z m75 -56 c0
-2 -9 -4 -21 -4 -11 0 -18 4 -14 10 5 8 35 3 35 -6z m303 -361 c-7 -2 -19 -2
-25 0 -7 3 -2 5 12 5 14 0 19 -2 13 -5z m5267 -413 c0 -5 -7 -7 -15 -4 -8 4
-15 8 -15 10 0 2 7 4 15 4 8 0 15 -4 15 -10z m-160 -12 c0 -20 -13 -34 -35
-40 -11 -3 -28 -9 -38 -13 -10 -4 -17 -4 -16 1 1 5 -1 17 -6 27 -10 24 1 33
21 16 15 -12 18 -11 28 4 13 20 46 23 46 5z m-332 -145 c-10 -2 -26 -2 -35 0
-10 3 -2 5 17 5 19 0 27 -2 18 -5z m-3963 -43 c3 -5 1 -10 -4 -10 -6 0 -11 5
-11 10 0 6 2 10 4 10 3 0 8 -4 11 -10z m-30 -20 c3 -6 -4 -10 -17 -10 -18 0
-20 2 -8 10 19 12 18 12 25 0z m375 -55 c0 -10 -10 -15 -27 -15 -27 1 -27 1
-9 15 25 19 36 19 36 0z m56 -107 c4 -6 3 -8 -4 -4 -5 3 -12 0 -15 -6 -2 -7
-8 -9 -13 -5 -5 4 -2 12 6 17 19 12 17 12 26 -2z m-531 -28 c3 -6 -1 -13 -10
-16 -19 -8 -30 0 -20 15 8 14 22 14 30 1z m395 -55 c-7 -8 -16 -15 -21 -15 -5
0 -9 7 -9 15 0 9 9 15 21 15 18 0 19 -2 9 -15z m157 9 c-3 -3 -12 -4 -19 -1
-8 3 -5 6 6 6 11 1 17 -2 13 -5z m-1137 -24 c0 -5 -15 -9 -32 -9 l-33 1 30 8
c17 4 31 8 33 9 1 0 2 -3 2 -9z m220 -30 c-8 -5 -22 -10 -31 -10 -9 0 -23 -7
-30 -17 -13 -15 -11 -15 24 -9 59 11 36 -10 -31 -29 -31 -9 -70 -21 -87 -26
-79 -27 -84 -28 -78 -13 4 12 -4 13 -48 8 -30 -3 -70 -10 -89 -15 -22 -5 -38
-5 -44 1 -6 6 -20 10 -33 10 -24 0 -31 15 -10 23 6 2 27 2 45 -1 18 -3 57 0
85 6 29 6 79 16 112 23 33 7 66 17 72 22 14 10 106 34 138 36 16 1 17 -1 5 -9z
m756 -5 c-11 -8 -29 -15 -40 -15 -21 1 -21 1 -2 15 11 8 29 15 40 15 21 -1 21
-1 2 -15z m-1040 -127 c-10 -6 -15 -17 -11 -28 3 -10 0 -20 -8 -23 -14 -5 -77
21 -77 32 0 12 74 38 93 33 17 -4 18 -6 3 -14z m114 3 c0 -5 -13 -14 -30 -20
-24 -8 -30 -7 -30 4 0 7 6 16 13 18 21 9 47 8 47 -2z m-276 -42 c-20 -22 -9
-42 18 -33 18 5 37 -8 38 -26 0 -4 -40 -4 -71 -1 -14 2 -17 31 -7 59 7 19 17
28 25 25 11 -4 11 -9 -3 -24z m1477 22 c-8 -5 -20 -7 -28 -4 -21 8 -15 13 15
13 20 0 23 -3 13 -9z m-51 -11 c12 -8 12 -10 -5 -10 -11 0 -37 -3 -57 -6 -26
-5 -38 -3 -38 5 0 7 4 10 8 7 4 -2 14 -1 22 5 19 11 51 11 70 -1z m-184 -40
c-22 -11 -47 -20 -55 -20 -23 1 50 39 74 39 13 0 7 -6 -19 -19z m262 -78 c2
-7 -7 -12 -22 -12 -27 0 -35 15 -13 23 17 7 30 3 35 -11z m-1423 -52 c3 -5 -1
-10 -9 -10 -9 0 -16 5 -16 10 0 6 4 10 9 10 6 0 13 -4 16 -10z m1252 -46 c-3
-3 -12 -4 -19 -1 -8 3 -5 6 6 6 11 1 17 -2 13 -5z m-1292 -45 c-4 -5 3 -9 14
-9 28 0 35 -17 10 -25 -25 -8 -25 -8 -35 29 -5 21 -4 27 5 22 6 -4 9 -12 6
-17z m1323 -44 c-8 -8 -68 -25 -68 -19 0 6 41 23 59 23 8 1 12 -1 9 -4z m62
-45 c-20 -13 -53 -13 -45 0 3 6 18 10 33 10 21 0 24 -2 12 -10z m-100 -30 c-8
-5 -28 -10 -45 -10 -23 0 -27 3 -15 10 8 5 29 10 45 10 23 0 27 -3 15 -10z
m180 -40 c0 -5 -7 -10 -15 -10 -8 0 -15 5 -15 10 0 6 7 10 15 10 8 0 15 -4 15
-10z m110 -64 c0 -3 -4 -8 -10 -11 -5 -3 -10 -1 -10 4 0 6 5 11 10 11 6 0 10
-2 10 -4z m-1296 -1225 c-19 -4 -47 26 -38 41 4 5 17 -1 31 -14 22 -20 23 -23
7 -27z m7259 -491 c7 -10 25 -24 40 -29 33 -13 37 -36 5 -25 -13 4 -31 7 -40
6 -10 0 -18 4 -18 10 0 7 -10 22 -22 35 l-21 23 21 0 c11 0 27 -9 35 -20z
m-7865 -101 c12 -5 22 -13 22 -19 0 -18 -32 -10 -64 16 -29 25 -29 26 -6 19
14 -4 35 -11 48 -16z m7895 -16 c-7 -2 -19 -2 -25 0 -7 3 -2 5 12 5 14 0 19
-2 13 -5z m5 -61 c2 -7 -7 -12 -22 -12 -26 0 -41 14 -31 30 7 11 47 -2 53 -18z"/>
<path d="M9960 10440 c0 -5 5 -10 11 -10 5 0 7 5 4 10 -3 6 -8 10 -11 10 -2 0
-4 -4 -4 -10z"/>
<path d="M2305 3356 c-16 -6 -25 -15 -20 -18 6 -3 26 2 45 13 39 20 21 25 -25
5z"/>
<path d="M10680 10785 c7 -8 16 -15 21 -15 4 0 25 -11 45 -25 20 -14 41 -25
45 -25 5 0 9 18 9 40 l0 40 -66 0 c-58 0 -65 -2 -54 -15z"/>
<path d="M5940 9820 c-15 -27 -12 -38 10 -50 15 -8 31 -7 59 1 38 11 39 12 22
31 -10 10 -32 23 -50 28 -26 7 -33 5 -41 -10z"/>
<path d="M5283 7750 c-13 -5 -23 -14 -23 -21 0 -7 -12 -9 -32 -6 -18 3 -42 7
-53 9 -28 4 -33 -37 -6 -52 11 -6 31 -20 44 -33 14 -12 36 -32 50 -43 28 -23
29 -28 62 -232 8 -51 18 -99 22 -106 10 -17 53 -3 53 17 0 21 208 197 234 197
47 2 220 38 223 47 3 7 -17 15 -49 20 -44 7 -54 12 -56 30 -2 12 -17 34 -34
48 -35 30 -81 27 -110 -6 -9 -10 -21 -19 -26 -19 -5 0 -12 -17 -16 -38 -3 -21
-14 -46 -25 -56 -18 -17 -20 -16 -48 18 -15 20 -33 36 -39 36 -6 0 -21 -23
-34 -51 -13 -28 -27 -52 -32 -55 -4 -3 -19 3 -33 12 -30 19 -33 55 -9 103 9
18 17 57 18 86 1 44 -3 58 -23 79 -27 29 -27 29 -58 16z"/>
<path d="M3490 7618 c0 -6 9 -8 19 -5 15 4 19 0 15 -16 -2 -13 4 -26 17 -35
11 -8 29 -28 39 -45 19 -31 16 -45 -18 -89 -17 -21 -10 -24 63 -32 79 -8 95 2
60 39 -29 32 -29 60 -1 113 21 41 11 57 -42 66 -73 13 -152 15 -152 4z"/>
<path d="M3580 7336 c0 -24 46 -28 82 -6 l33 20 -57 0 c-43 0 -58 -4 -58 -14z"/>
<path d="M3645 7200 c3 -5 0 -10 -7 -10 -8 0 -7 -4 4 -10 11 -7 25 -6 42 1 32
15 24 29 -15 29 -18 0 -28 -4 -24 -10z"/>
<path d="M5305 7144 c-16 -8 -57 -41 -90 -73 -49 -47 -68 -59 -105 -64 -25 -4
-79 -16 -120 -27 -41 -11 -101 -25 -132 -31 -66 -12 -122 -46 -126 -76 -4 -28
21 -36 70 -22 22 5 54 7 71 3 18 -4 46 -6 62 -5 17 0 49 -4 72 -10 32 -9 50
-9 71 0 33 14 65 4 101 -30 21 -19 37 -24 90 -24 37 -1 96 -11 135 -23 37 -12
81 -22 96 -22 24 0 29 -5 34 -35 6 -30 11 -35 34 -35 15 0 47 -9 71 -20 24
-11 52 -20 62 -20 11 0 35 -7 55 -15 34 -14 64 -11 64 6 0 18 -36 51 -73 66
-20 8 -51 33 -68 54 -20 26 -43 42 -70 49 -21 6 -43 19 -49 30 -5 10 -24 21
-40 25 -44 10 -117 111 -126 174 -13 91 -20 114 -39 127 -17 11 -25 11 -50 -2z"/>
<path d="M3710 7122 c-30 -2 -59 -8 -65 -14 -11 -12 110 -7 121 5 11 11 3 12
-56 9z"/>
<path d="M2870 7080 c-8 -5 -12 -11 -10 -14 8 -7 60 6 60 15 0 12 -31 11 -50
-1z"/>
<path d="M3818 7073 c-10 -2 -18 -9 -18 -15 0 -6 10 -8 23 -4 12 3 29 6 37 6
13 0 13 1 0 10 -8 5 -17 9 -20 9 -3 -1 -13 -3 -22 -6z"/>
<path d="M3692 7048 c-6 -7 -8 -25 -5 -40 5 -25 10 -28 43 -28 41 0 50 12 42
58 -4 17 -11 22 -37 22 -18 0 -37 -6 -43 -12z"/>
<path d="M2970 7043 c-14 -3 -29 -9 -35 -15 -13 -13 106 0 120 13 9 9 -37 10
-85 2z"/>
<path d="M2746 7005 c-20 -15 -20 -15 0 -15 10 1 33 7 49 15 l30 13 -30 1
c-16 0 -39 -6 -49 -14z"/>
<path d="M3808 7013 c6 -2 18 -2 25 0 6 3 1 5 -13 5 -14 0 -19 -2 -12 -5z"/>
<path d="M2966 6970 c-42 -4 -63 -11 -75 -26 -9 -11 -22 -19 -28 -17 -7 3 -24
-3 -40 -11 -15 -8 -22 -15 -15 -16 22 0 53 -36 46 -53 -4 -12 6 -19 49 -32 30
-9 61 -14 68 -13 8 2 13 -3 12 -9 -2 -7 3 -13 10 -13 8 0 13 9 11 23 -1 12 -3
22 -4 22 0 0 -2 24 -4 52 -2 29 0 51 3 49 4 -3 17 3 30 13 33 25 9 38 -63 31z"/>
<path d="M3848 6900 c4 -44 2 -50 -12 -44 -9 3 -16 17 -16 29 0 26 -24 55 -44
55 -21 0 -39 -28 -33 -51 3 -12 1 -30 -6 -40 -9 -15 -7 -22 16 -43 15 -14 27
-30 27 -36 0 -5 11 -10 24 -10 19 0 22 -4 18 -25 -6 -35 51 -206 92 -275 8
-14 28 -52 43 -85 15 -33 30 -62 33 -65 3 -3 14 -22 23 -42 10 -21 23 -41 30
-45 8 -4 24 -34 36 -65 27 -68 67 -98 129 -98 46 0 53 10 50 78 -1 35 -6 45
-27 55 -14 7 -27 20 -29 29 -6 29 35 33 208 19 58 -5 109 -5 114 -1 8 8 -32
70 -46 70 -4 0 -25 15 -45 34 -21 18 -55 41 -75 50 -20 10 -58 40 -83 67 -38
41 -46 55 -43 81 3 28 -3 36 -39 63 -23 16 -42 34 -42 38 -2 21 -95 117 -113
117 -17 0 -19 6 -17 43 3 55 -6 75 -34 70 -25 -5 -57 23 -61 54 -2 13 -13 19
-43 21 l-40 3 5 -51z m307 -700 c0 -7 -6 -15 -12 -17 -8 -3 -13 4 -13 17 0 13
5 20 13 18 6 -3 12 -11 12 -18z"/>
<path d="M7247 6270 c4 -14 0 -20 -11 -20 -27 0 -18 -19 17 -37 52 -27 170
-108 185 -126 11 -13 10 -17 -9 -27 -14 -8 -19 -8 -15 -1 4 7 1 9 -8 5 -8 -3
-12 -12 -9 -20 3 -10 -2 -14 -18 -14 -23 -1 -23 -1 -5 -15 10 -8 24 -11 29 -8
6 4 36 8 66 10 31 2 76 6 101 8 25 2 62 4 84 4 34 1 37 3 25 17 -22 27 -121
100 -174 128 -27 15 -70 40 -95 56 -25 15 -52 29 -61 29 -9 1 -33 8 -52 16
-48 20 -56 19 -50 -5z"/>
<path d="M4757 6146 c-3 -8 1 -20 9 -26 8 -7 14 -19 14 -27 0 -8 17 -29 37
-48 31 -28 35 -36 24 -49 -10 -12 -24 -14 -57 -9 -45 6 -194 -14 -194 -27 0
-3 118 -6 263 -6 214 0 275 -3 334 -17 101 -24 274 -37 546 -41 130 -2 240 -7
246 -10 5 -4 103 -6 218 -6 244 -1 427 22 483 60 13 9 12 12 -5 26 -17 12 -39
14 -132 8 -158 -9 -232 6 -284 59 l-40 40 -95 -6 c-52 -3 -100 -10 -107 -15
-20 -16 -69 -21 -94 -9 -18 8 -27 7 -41 -6 -10 -10 -35 -17 -55 -17 -20 0 -37
-4 -37 -10 0 -5 -12 -10 -27 -9 -16 0 -22 3 -15 6 6 2 12 8 12 13 0 15 -30 19
-58 8 -15 -6 -36 -14 -47 -18 -25 -10 -56 -9 -49 1 2 5 -8 15 -23 23 -16 7
-37 23 -47 35 -21 23 -94 31 -80 9 5 -8 2 -9 -11 -4 -11 4 -22 1 -27 -6 -7
-10 -11 -10 -14 -1 -4 8 -14 6 -37 -8 -18 -10 -42 -19 -55 -19 -13 0 -33 -5
-44 -11 -35 -19 -147 -18 -172 1 -20 16 -107 58 -191 93 -22 9 -57 18 -78 19
-21 1 -41 6 -43 10 -8 13 -21 9 -27 -6z"/>
<path d="M7110 6125 c0 -4 10 -16 23 -26 l22 -20 -30 3 c-33 2 -88 -28 -79
-44 4 -6 41 -7 98 -3 50 4 117 7 149 7 31 1 57 3 57 5 0 2 -7 14 -16 28 -12
19 -21 23 -48 18 -20 -3 -45 1 -62 10 -33 17 -114 32 -114 22z"/>
<path d="M1678 5253 c12 -2 30 -2 40 0 9 3 -1 5 -23 4 -22 0 -30 -2 -17 -4z"/>
<path d="M2420 5240 c0 -13 40 -13 60 0 11 7 5 10 -22 10 -21 0 -38 -4 -38
-10z"/>
<path d="M3263 5223 c-7 -2 -13 -9 -13 -15 0 -12 41 -6 41 7 1 12 -11 15 -28
8z"/>
<path d="M2282 4628 c-7 -7 -12 -16 -12 -20 0 -15 27 -8 45 12 18 19 17 20 -1
20 -11 0 -25 -5 -32 -12z"/>
<path d="M3230 4569 c-41 -17 -83 -35 -92 -40 -10 -5 -24 -9 -32 -9 -8 0 -40
-13 -72 -29 -33 -16 -75 -32 -94 -36 -19 -4 -42 -13 -50 -19 -8 -7 -35 -18
-60 -25 -25 -7 -72 -25 -105 -40 -33 -16 -103 -43 -155 -60 -52 -18 -109 -39
-127 -47 -17 -8 -39 -14 -50 -14 -10 0 -27 -7 -37 -15 -11 -8 -32 -15 -46 -15
-14 0 -50 -11 -78 -25 -29 -14 -60 -25 -71 -25 -10 0 -38 -9 -62 -20 -24 -11
-56 -20 -71 -20 -15 0 -29 -4 -33 -9 -3 -5 -30 -15 -60 -22 -50 -11 -74 -28
-42 -30 6 0 29 -2 49 -5 23 -3 50 2 67 11 17 8 40 15 53 15 13 0 39 8 58 19
19 10 55 22 80 26 51 8 189 53 206 66 5 4 35 15 66 23 30 8 77 25 104 39 27
13 63 27 79 31 40 10 148 51 210 80 102 48 280 126 289 126 5 0 37 13 70 29
34 16 71 32 84 36 22 6 26 26 6 31 -5 2 -43 -11 -84 -27z"/>
<path d="M3260 4430 c-46 -26 -63 -34 -140 -64 -198 -75 -262 -101 -332 -132
-43 -19 -82 -34 -88 -34 -7 0 -42 -13 -78 -29 -37 -16 -83 -32 -102 -36 -19
-4 -59 -18 -88 -31 -29 -13 -63 -24 -75 -24 -13 0 -27 -4 -32 -9 -6 -6 -73
-26 -149 -45 -76 -19 -144 -40 -149 -45 -6 -6 -22 -11 -37 -11 -14 0 -32 -4
-40 -10 -12 -8 -12 -10 3 -15 23 -9 154 19 302 65 50 15 109 33 133 39 87 23
127 35 137 42 6 4 53 20 106 37 52 16 104 34 115 40 10 5 57 24 104 42 79 31
133 55 220 100 19 10 74 34 122 54 83 34 128 61 128 78 0 14 -24 9 -60 -12z"/>
<path d="M3348 4342 c-12 -17 -38 -31 -185 -98 -32 -15 -94 -43 -138 -64 -44
-21 -111 -51 -150 -68 -80 -35 -426 -152 -450 -152 -9 0 -26 -6 -38 -14 -12
-8 -51 -20 -87 -26 -36 -7 -84 -19 -108 -27 -24 -8 -73 -19 -110 -23 -38 -5
-81 -14 -97 -20 l-30 -12 24 -9 c16 -6 43 -5 83 6 33 8 69 15 81 15 12 0 85
16 162 36 77 20 158 40 180 45 22 6 74 21 115 35 41 14 98 32 125 41 28 9 55
20 61 25 6 4 35 17 65 27 30 10 68 25 84 33 17 9 59 29 95 45 167 76 298 146
333 178 20 20 37 37 37 40 0 13 -40 3 -52 -13z"/>
<path d="M3343 4181 c-110 -58 -243 -121 -258 -121 -9 0 -47 -18 -84 -40 -37
-22 -75 -40 -84 -40 -9 0 -21 -10 -28 -21 -9 -17 -17 -20 -44 -16 -18 3 -44 0
-57 -7 -13 -7 -44 -16 -68 -20 -24 -4 -58 -18 -75 -31 -17 -13 -51 -29 -76
-35 -24 -7 -49 -16 -55 -21 -6 -5 -64 -20 -129 -34 -64 -14 -120 -27 -124 -29
-3 -3 -63 -12 -131 -21 -166 -21 -176 -23 -161 -38 43 -43 476 46 803 166 37
13 78 31 92 40 14 10 35 17 47 17 12 0 38 9 58 20 20 10 64 30 97 44 34 14 77
34 95 45 19 10 49 22 66 26 18 4 36 11 39 17 3 5 27 19 53 30 55 23 81 45 81
68 0 21 -19 21 -57 1z"/>
<path d="M3390 4035 c-14 -7 -43 -21 -65 -31 -22 -9 -49 -21 -59 -27 -37 -18
-129 -47 -153 -47 -24 0 -32 -15 -10 -23 21 -8 -64 -38 -92 -33 -27 6 -54 -5
-50 -20 4 -16 -45 -34 -94 -34 -27 0 -65 -8 -85 -19 -72 -36 -97 -51 -84 -51
7 0 11 -4 8 -9 -9 -15 -68 -21 -108 -12 -28 7 -40 5 -49 -5 -8 -10 -8 -14 0
-14 6 0 11 -4 11 -9 0 -11 -131 -54 -215 -71 -33 -6 -76 -15 -95 -20 -38 -9
-243 -26 -275 -22 -18 2 -17 0 5 -18 33 -26 74 -25 250 4 257 44 471 105 646
187 23 10 56 22 75 26 38 7 92 31 292 127 75 36 141 66 146 66 16 0 61 41 61
56 0 17 -26 17 -60 -1z"/>
<path d="M3363 3918 c-30 -15 -29 -28 2 -28 18 0 25 5 25 20 0 11 -1 20 -2 19
-2 0 -13 -5 -25 -11z"/>
<path d="M3275 3850 c3 -5 12 -7 20 -3 21 7 19 13 -6 13 -11 0 -18 -4 -14 -10z"/>
<path d="M2425 3689 c-94 -23 -117 -31 -108 -40 9 -9 118 16 173 39 l25 11
-25 -1 c-14 0 -43 -4 -65 -9z"/>
<path d="M7537 3684 c-4 -4 -2 -13 4 -21 9 -10 8 -13 -1 -13 -7 0 -10 -7 -6
-17 4 -9 1 -20 -5 -24 -8 -5 -3 -14 15 -30 32 -28 33 -42 4 -61 -19 -13 -21
-18 -10 -31 8 -9 12 -34 10 -59 -4 -56 11 -56 53 2 27 36 33 56 35 100 2 54
-20 120 -39 120 -5 0 -4 7 3 15 10 12 10 15 -1 15 -8 0 -23 3 -34 6 -11 3 -24
2 -28 -2z"/>
<path d="M3560 3330 c-13 -8 -12 -10 3 -10 9 0 17 5 17 10 0 12 -1 12 -20 0z"/>
<path d="M7520 3324 c0 -8 5 -12 10 -9 6 3 10 10 10 16 0 5 -4 9 -10 9 -5 0
-10 -7 -10 -16z"/>
<path d="M7320 2975 c1 -26 2 -28 11 -12 8 14 8 22 0 30 -8 8 -11 3 -11 -18z"/>
<path d="M3915 2951 c-13 -22 6 -49 48 -69 53 -25 68 -17 31 16 -16 14 -39 34
-50 44 -15 13 -24 16 -29 9z"/>
<path d="M4020 2849 c0 -5 5 -7 10 -4 6 3 10 8 10 11 0 2 -4 4 -10 4 -5 0 -10
-5 -10 -11z"/>
<path d="M4046 2831 c-3 -4 3 -16 14 -26 11 -10 20 -14 20 -9 1 5 7 -6 15 -23
8 -18 18 -33 24 -33 5 0 26 -29 46 -65 34 -62 38 -65 73 -65 57 0 83 19 98 70
16 54 18 80 4 80 -5 0 -16 -12 -23 -26 -18 -34 -28 -19 -30 44 -1 26 -6 50
-12 54 -5 4 -29 8 -52 8 -36 0 -46 -5 -65 -30 -23 -32 -48 -40 -48 -16 0 8
-10 22 -22 30 -26 18 -35 20 -42 7z"/>
<path d="M4396 2752 c-4 -13 -5 -26 -2 -29 10 -11 18 4 14 29 l-4 23 -8 -23z"/>
<path d="M4442 2680 c-12 -16 -22 -34 -22 -40 0 -21 17 -9 43 30 30 47 13 56
-21 10z"/>
<path d="M4655 2700 c-3 -5 -1 -10 4 -10 6 0 11 5 11 10 0 6 -2 10 -4 10 -3 0
-8 -4 -11 -10z"/>
<path d="M4100 2580 c0 -11 5 -20 10 -20 6 0 10 9 10 20 0 11 -4 20 -10 20 -5
0 -10 -9 -10 -20z"/>
<path d="M8970 1191 c0 -10 -7 -24 -15 -31 -8 -7 -15 -21 -15 -31 0 -22 0 -22
35 -9 20 8 26 15 22 30 -3 11 1 24 9 31 17 14 9 29 -17 29 -12 0 -19 -7 -19
-19z"/>
<path d="M1965 1040 c-12 -39 43 -68 72 -39 9 9 4 18 -17 35 -34 29 -47 30
-55 4z"/>
<path d="M1095 671 c-3 -5 -1 -12 5 -16 5 -3 10 1 10 9 0 18 -6 21 -15 7z"/>
<path d="M1144 625 c-2 -32 12 -32 18 0 3 15 1 25 -6 25 -6 0 -12 -11 -12 -25z"/>
<path d="M1025 571 c-5 -9 18 -36 37 -44 24 -9 33 11 14 32 -16 17 -43 24 -51
12z"/>
<path d="M2433 207 c-39 -29 -112 -115 -141 -166 l-23 -41 260 0 c229 0 260 2
255 15 -4 9 -14 20 -24 25 -9 5 -20 22 -23 39 -8 40 -41 74 -111 116 -74 44
-144 48 -193 12z"/>
</g>
</svg>
